<svg width="48" height="48" viewBox="0 0 48 48" fill="none" xmlns="http://www.w3.org/2000/svg">
<circle cx="24" cy="24" r="24" fill="white"/>
<path d="M35.4592 9.77758L34.0061 10.7328C32.9353 9.6698 31.4476 9.02884 29.847 9.02884L18.1519 9.04999C16.5627 9.05301 15.0854 9.70069 14.0106 10.7792L12.5386 9.81922C12.2277 9.61709 11.8117 9.70405 11.6093 10.015C11.4065 10.3255 11.4941 10.7415 11.8047 10.9443L13.1749 11.8378C12.9516 12.1997 12.7633 12.5879 12.6206 13.0019C12.2566 14.0575 12.0431 15.1521 11.9823 16.2681C11.9689 16.3212 11.9595 16.3756 11.9595 16.433V26.8731C11.9585 32.6696 16.7659 35.9617 20.2725 37.5929C20.2725 37.5929 21.6885 38.2871 22.5728 38.712C23.4571 39.137 24.6753 38.9677 25.4058 38.712C26.1363 38.4564 27.7509 37.5929 27.7509 37.5929C31.2575 35.9614 36.0653 32.6696 36.0643 26.8731V16.4327C36.0643 16.3722 36.0539 16.3148 36.0388 16.2594C35.9723 15.0544 35.7299 13.8755 35.3122 12.748C35.1873 12.4103 35.0271 12.0916 34.8428 11.7905L36.1972 10.9004C36.5071 10.6966 36.5934 10.2802 36.3893 9.97031C36.1858 9.6604 35.7702 9.57378 35.4592 9.77758ZM24.0112 37.5653C22.6359 37.1715 13.3008 34.2229 13.3022 26.8728V22.4058C15.2042 26.0773 18.9426 28.6953 23.2564 28.9582C23.5069 28.9736 23.7607 28.9813 24.0109 28.9813C24.0115 28.9813 24.0115 28.9813 24.0122 28.9813C27.2341 28.9813 30.262 27.7256 32.5381 25.4461C33.4279 24.5547 34.1585 23.5477 34.7209 22.4602V26.8731C34.7226 34.2104 25.3858 37.1701 24.0112 37.5653ZM34.0527 13.2144C34.4906 14.3963 34.7139 15.6409 34.7162 16.9141C34.7216 19.7782 33.6102 22.471 31.5879 24.4969C29.566 26.5226 26.8756 27.6379 24.0125 27.6379H24.0115C23.7889 27.6379 23.564 27.6309 23.3387 27.6175C17.9158 27.2871 13.5127 22.7698 13.3146 17.3338C13.2656 15.9979 13.4596 14.6877 13.8901 13.4397C13.9965 13.1318 14.1362 12.8424 14.3004 12.5718L15.2986 13.2228C15.266 13.2695 15.2301 13.3125 15.1992 13.3605C13.8256 15.5016 14.4515 18.3623 16.5943 19.7372C17.3464 20.22 18.2026 20.4692 19.0759 20.4692C19.4063 20.4692 19.7397 20.4336 20.0701 20.3614C21.2744 20.0981 22.3039 19.3823 22.969 18.3458C23.1459 18.0702 23.2893 17.7804 23.3984 17.4846C23.4011 17.4782 23.4041 17.4718 23.4068 17.4651C23.4075 17.4631 23.4088 17.4608 23.4095 17.4587C23.4142 17.4456 23.4156 17.4326 23.4193 17.4195C23.4276 17.3913 23.436 17.363 23.4407 17.3342C23.4438 17.3157 23.4434 17.2976 23.4448 17.2791C23.4465 17.2543 23.4491 17.2294 23.4481 17.2046C23.4475 17.1841 23.4434 17.1643 23.4407 17.1441C23.4377 17.1216 23.4357 17.0988 23.4307 17.0766C23.426 17.0568 23.4186 17.038 23.4122 17.0189C23.4052 16.9971 23.3988 16.9756 23.3894 16.9544C23.381 16.9363 23.3702 16.9195 23.3605 16.9021C23.3491 16.8819 23.3387 16.8614 23.3252 16.8426C23.3125 16.8248 23.2974 16.809 23.2829 16.7923C23.2688 16.7761 23.2561 16.7594 23.2406 16.7446C23.2218 16.7268 23.2003 16.7117 23.1795 16.6962C23.1664 16.6862 23.155 16.6747 23.1409 16.6657L16.6598 12.5066L15.1673 11.5336C15.9741 10.8188 17.0274 10.395 18.1546 10.393L29.8578 10.3719C30.99 10.3719 32.0503 10.7889 32.8534 11.4903L31.3516 12.4774L24.8815 16.6613C24.8677 16.6704 24.8566 16.6818 24.8439 16.6915C24.8227 16.7076 24.8009 16.7228 24.7821 16.7409C24.767 16.7553 24.7546 16.7718 24.7408 16.7876C24.726 16.8047 24.7106 16.8208 24.6975 16.8393C24.6847 16.8574 24.6747 16.8772 24.6639 16.8963C24.6535 16.9148 24.6421 16.9326 24.6337 16.9517C24.625 16.9712 24.6193 16.9914 24.6125 17.0115C24.6055 17.0327 24.5974 17.0531 24.5924 17.0746C24.5877 17.0944 24.5864 17.1146 24.5833 17.1347C24.5803 17.1576 24.5763 17.1797 24.5753 17.2029C24.5746 17.2247 24.577 17.2465 24.5786 17.2684C24.58 17.2895 24.58 17.3107 24.5837 17.3322C24.5877 17.358 24.5958 17.3832 24.6031 17.4084C24.6075 17.4242 24.6095 17.4399 24.6152 17.4554C24.6162 17.4581 24.6176 17.4604 24.6186 17.4631C24.6206 17.4685 24.6233 17.4738 24.6256 17.4792C24.7358 17.775 24.8805 18.0648 25.0591 18.3411C25.7279 19.3759 26.7601 20.0881 27.9654 20.3466C28.2908 20.4164 28.6181 20.451 28.9432 20.451C29.8222 20.451 30.6837 20.1989 31.4389 19.7103C33.5766 18.328 34.1924 15.465 32.8111 13.3282C32.7799 13.2802 32.744 13.2376 32.7114 13.1909L33.7214 12.5271C33.8506 12.7443 33.9634 12.973 34.0527 13.2144ZM17.5633 15.746C17.6697 15.8085 17.7866 15.838 17.9017 15.838C18.1327 15.838 18.357 15.7192 18.4823 15.5053L18.499 15.4774C18.5299 15.4294 18.5706 15.3918 18.6102 15.3539L19.74 16.0788C19.7222 16.1301 19.7001 16.1805 19.6695 16.2282C19.5694 16.384 19.4147 16.4918 19.2337 16.5314C19.0534 16.5703 18.867 16.5374 18.7116 16.4377C18.6404 16.392 18.5786 16.335 18.5289 16.2685C18.3063 15.9727 17.8856 15.9126 17.5885 16.1355C17.292 16.3585 17.2322 16.7795 17.4555 17.076C17.6019 17.2704 17.7802 17.4356 17.986 17.5679C18.3181 17.7811 18.6961 17.8909 19.0816 17.8909C19.2276 17.8909 19.3744 17.8751 19.5204 17.8432C20.0519 17.727 20.5069 17.4107 20.8 16.9534C20.8299 16.9071 20.8514 16.8564 20.8772 16.8077L21.9204 17.4769C21.8932 17.5245 21.8694 17.5729 21.8392 17.6196C21.3678 18.3545 20.6378 18.8622 19.784 19.0486C18.9305 19.2352 18.0555 19.0781 17.3202 18.6067C15.8009 17.6317 15.3563 15.6033 16.33 14.0857C16.3603 14.039 16.3942 13.9971 16.4261 13.9524L17.4693 14.6216C17.4354 14.6659 17.3978 14.7072 17.3672 14.7545L17.3229 14.8271C17.1355 15.1474 17.2433 15.5587 17.5633 15.746ZM27.1462 16.7966C27.172 16.845 27.1935 16.8957 27.2237 16.942C27.6035 17.5293 28.2565 17.8724 28.9375 17.8724C29.0869 17.8724 29.238 17.8559 29.387 17.8217C29.7486 17.7391 29.975 17.3795 29.8927 17.0176C29.8101 16.6559 29.4498 16.43 29.0885 16.5122C28.8038 16.576 28.5087 16.4562 28.3516 16.2124C28.321 16.1647 28.2988 16.1144 28.2807 16.063L29.4079 15.3341C29.4478 15.3717 29.4884 15.4093 29.5193 15.4573C29.6154 15.6057 29.6513 15.783 29.6194 15.9566C29.5532 16.3215 29.7946 16.6711 30.1596 16.7375C30.2002 16.7449 30.2409 16.7486 30.2805 16.7486C30.5988 16.7486 30.8815 16.5213 30.9406 16.1973C31.0336 15.6863 30.9295 15.1642 30.6471 14.728C30.6173 14.6817 30.58 14.6414 30.5464 14.5977L31.5873 13.9249C31.6192 13.9692 31.6537 14.0112 31.6836 14.0578C32.663 15.5724 32.2262 17.6024 30.7103 18.5829C29.9766 19.057 29.1026 19.2171 28.2478 19.0338C27.3933 18.8505 26.6617 18.3455 26.1876 17.6122C26.1574 17.5655 26.1335 17.5172 26.106 17.4698L27.1462 16.7966Z" fill="#B8C5D0"/>
<path fill-rule="evenodd" clip-rule="evenodd" d="M11.8211 17.2976C11.8705 17.202 11.9162 17.1137 11.9575 17.0331L13.2925 17.7169C13.253 17.7942 13.21 17.8774 13.1641 17.9664C12.1839 19.8652 9.8487 24.3887 10.124 29.7112C10.3018 33.1486 11.6236 35.7475 13.8683 37.503C16.1325 39.2737 19.4186 40.25 23.625 40.25C27.8433 40.25 31.2912 39.3309 33.6647 37.5835C36.0067 35.8594 37.375 33.278 37.375 29.75C37.375 24.643 35.7654 20.4793 34.9591 18.3935C34.8436 18.0947 34.7446 17.8386 34.6691 17.6284L36.0809 17.1216C36.1495 17.3126 36.2426 17.5525 36.3533 17.8378C37.154 19.9015 38.875 24.3367 38.875 29.75C38.875 33.7219 37.3058 36.7656 34.554 38.7915C31.8338 40.7941 28.0317 41.75 23.625 41.75C19.2064 41.75 15.555 40.7263 12.9442 38.6845C10.3139 36.6275 8.82321 33.6014 8.626 29.7887C8.32908 24.0482 10.8336 19.2064 11.8211 17.2976Z" fill="#B8C5D0"/>
<path d="M24.5558 19.1365C24.4292 18.9653 24.2288 18.8639 24.0159 18.8639C24.0156 18.8639 24.0152 18.8639 24.0146 18.8639C23.801 18.8642 23.6009 18.9663 23.4747 19.1382L21.9087 21.2736C21.7458 21.4955 21.7348 21.794 21.8808 22.027L23.4548 24.5409C23.5777 24.737 23.793 24.8558 24.024 24.8558C24.0243 24.8558 24.0246 24.8558 24.0253 24.8558C24.2566 24.8555 24.4722 24.7356 24.5944 24.5389L26.1597 22.0193C26.3048 21.7856 26.2927 21.4871 26.1292 21.2659L24.5558 19.1365ZM24.0216 22.9158L23.2604 21.7004L24.0176 20.6679L24.7784 21.6973L24.0216 22.9158Z" fill="#B8C5D0"/>
<path d="M21.3987 31.5452C21.5645 31.2135 21.4299 30.8102 21.0978 30.6444C20.7651 30.4782 20.3632 30.6135 20.197 30.9449C20.1802 30.9788 20.0429 31.0634 19.8186 31.0634C19.594 31.0634 19.4566 30.9788 19.4399 30.9449C19.274 30.6135 18.8704 30.4782 18.539 30.6444C18.2073 30.8102 18.0723 31.2135 18.2382 31.5452C18.5034 32.0764 19.1091 32.4061 19.8183 32.4061C20.5277 32.4061 21.1334 32.0764 21.3987 31.5452Z" fill="#B8C5D0"/>
<path d="M25.5799 31.5451C25.7458 31.2134 25.6115 30.8102 25.2794 30.6443C24.9467 30.4774 24.5444 30.6131 24.3782 30.9445C24.3614 30.9784 24.2241 31.063 23.9995 31.063C23.7749 31.063 23.6375 30.9784 23.6207 30.9445C23.4549 30.6131 23.0526 30.4778 22.7196 30.6443C22.3878 30.8102 22.2532 31.2134 22.4191 31.5451C22.6846 32.0763 23.2904 32.406 23.9991 32.406C24.7079 32.406 25.3143 32.0763 25.5799 31.5451Z" fill="#B8C5D0"/>
<path d="M29.4603 30.644C29.1279 30.4778 28.7256 30.6131 28.5594 30.9445C28.5426 30.9784 28.4053 31.063 28.1807 31.063C27.9564 31.063 27.8191 30.9784 27.8023 30.9445C27.6368 30.6131 27.2332 30.4778 26.9014 30.644C26.5697 30.8098 26.4347 31.2131 26.6006 31.5448C26.8659 32.076 27.4716 32.4057 28.1803 32.4057C28.8895 32.4057 29.4952 32.076 29.7604 31.5448C29.9266 31.2131 29.792 30.8098 29.4603 30.644Z" fill="#B8C5D0"/>
<path d="M23.1889 33.4143C22.8565 33.2471 22.4536 33.3831 22.2878 33.7145C22.271 33.7484 22.1336 33.833 21.909 33.833C21.6847 33.833 21.5474 33.7484 21.5306 33.7145C21.3651 33.3831 20.9615 33.2478 20.6298 33.414C20.298 33.5799 20.1631 33.9831 20.3289 34.3149C20.5942 34.846 21.1996 35.1757 21.9083 35.1757H21.9087C22.6175 35.1757 23.2232 34.846 23.4888 34.3149C23.6553 33.9835 23.5207 33.5802 23.1889 33.4143Z" fill="#B8C5D0"/>
<path d="M27.3695 33.414C27.0371 33.2478 26.6348 33.3831 26.4686 33.7145C26.4519 33.7484 26.3145 33.833 26.0902 33.833C25.8656 33.833 25.7283 33.7484 25.7115 33.7145C25.5456 33.3831 25.1431 33.2478 24.8103 33.4144C24.4786 33.5802 24.344 33.9835 24.5098 34.3152C24.7754 34.8464 25.3808 35.1761 26.0899 35.1761H26.0902C26.799 35.1761 27.4044 34.846 27.6696 34.3152C27.8362 33.9831 27.7012 33.5799 27.3695 33.414Z" fill="#B8C5D0"/>
</svg>
