<svg width="48" height="49" viewBox="0 0 48 49" fill="none" xmlns="http://www.w3.org/2000/svg">
<circle cx="24" cy="24.236" r="24" fill="white"/>
<path d="M23.9876 24.3718C20.5104 24.3718 17.7679 26.323 17.7679 28.8352C17.7679 31.3474 20.4859 33.2986 23.9876 33.2986C27.4892 33.2986 30.2073 31.3474 30.2073 28.8352C30.2073 26.323 27.4648 24.3718 23.9876 24.3718ZM23.9876 31.7132C21.4899 31.7132 19.3595 30.3962 19.3595 28.8108C19.3595 27.2498 21.4899 25.9084 23.9876 25.9084C26.4853 25.9084 28.6157 27.2254 28.6157 28.8108C28.6157 30.3962 26.5098 31.7132 23.9876 31.7132Z" fill="#B8C5CE"/>
<path d="M22.1021 27.6888C21.6613 27.6888 21.3185 28.0303 21.3185 28.4693V29.1523C21.3185 29.5913 21.6613 29.9327 22.1021 29.9327C22.5429 29.9327 22.8857 29.5913 22.8857 29.1523V28.4693C22.9102 28.0547 22.5429 27.6888 22.1021 27.6888Z" fill="#B8C5CE"/>
<path d="M25.8731 27.6888C25.4323 27.6888 25.0895 28.0303 25.0895 28.4693V29.1523C25.0895 29.5913 25.4323 29.9327 25.8731 29.9327C26.3139 29.9327 26.6567 29.5913 26.6567 29.1523V28.4693C26.6812 28.0547 26.3139 27.6888 25.8731 27.6888Z" fill="#B8C5CE"/>
<path d="M41.1287 15.9571C40.7859 15.8108 37.9209 14.5913 37.3577 14.1766C35.3987 12.6888 33.6602 12.201 32.2399 12.7132C31.4563 13.0059 30.7952 13.5669 30.3299 14.4205L30.232 14.6401L30.0116 14.5425C27.7588 13.4205 24.0367 13.2498 23.9878 13.2254C23.596 13.2498 20.1433 13.4449 18.0129 14.5181L17.7925 14.6157L17.6701 14.3962C17.3518 13.8108 16.7396 13.0547 15.7601 12.6888C14.3399 12.201 12.6013 12.6888 10.6423 14.1766C10.0791 14.6157 7.21411 15.8108 6.87129 15.9571C5.98975 16.2986 5.42655 17.1766 5.50001 18.1279C5.64693 20.1522 6.45501 23.884 9.93217 26.1279C10.275 26.3474 10.6423 26.4449 11.0586 26.4449C11.5238 26.4449 12.0136 26.2742 12.4054 25.9571L12.7727 25.6644L12.8217 26.1279C12.9931 27.9327 13.6052 31.323 15.9315 33.7376C17.6946 35.5669 20.0943 36.4937 23.0817 36.4937H24.7224C27.6853 36.4937 30.1095 35.5669 31.8971 33.7376C34.2723 31.323 34.958 27.9083 35.1539 26.0791L35.2029 25.6157L35.5702 25.9083C35.962 26.2254 36.4517 26.4205 36.9414 26.4205C37.3332 26.4205 37.725 26.2986 38.0678 26.1035C41.5695 23.8596 42.3531 20.1279 42.5 18.1035C42.5735 17.201 42.0103 16.323 41.1287 15.9571ZM12.7482 23.3474V23.4449L11.4993 24.7132C11.3769 24.8108 11.23 24.884 11.0831 24.884C10.9851 24.884 10.8872 24.8596 10.8137 24.8108C7.89975 22.9327 7.21411 19.7376 7.09167 18.0059C7.06718 17.762 7.21411 17.5425 7.45898 17.4449C7.8018 17.2742 10.9361 15.9327 11.5973 15.4449C13.1155 14.2986 14.3399 13.884 15.2214 14.201C15.6866 14.3718 16.0539 14.7132 16.3723 15.2986L16.4702 15.4937L16.2988 15.6157C15.956 15.884 15.6622 16.1522 15.4173 16.4205C13.7522 18.1279 12.8706 20.4693 12.7482 23.3474ZM33.6602 24.5913V24.6644C33.6602 24.8596 33.6602 29.7376 30.7707 32.6644C29.277 34.1766 27.2445 34.9327 24.7224 34.9327C24.6734 34.9327 24.5999 34.9327 24.502 34.9327H24.4775C24.2571 34.9327 23.7429 34.9083 23.6449 34.9327H23.596C23.4246 34.9327 23.2532 34.9327 23.1062 34.9327C20.5841 34.9327 18.5761 34.1766 17.1069 32.6644C14.3154 29.8108 14.3399 25.201 14.3399 24.6644V24.5913C14.2174 21.6157 14.952 19.2498 16.5437 17.4937C19.0659 14.7376 23.5225 14.7864 24.0123 14.8108C24.2326 14.8108 25.3835 14.8108 26.8283 15.1522C28.8117 15.5913 30.3789 16.3962 31.4563 17.5181C33.048 19.1522 33.7826 21.5425 33.6602 24.5913ZM37.2108 24.7864C37.1373 24.8352 37.0394 24.8596 36.9414 24.8596C36.7945 24.8596 36.6476 24.7864 36.5252 24.6888L35.2273 23.3962V23.2986C35.1294 20.4449 34.2234 18.1035 32.5827 16.3962C32.3379 16.1522 32.0685 15.884 31.7257 15.6157L31.5788 15.4937L31.6767 15.323C31.8726 14.9327 32.2399 14.4205 32.8031 14.2254C33.6847 13.9083 34.9335 14.3474 36.4272 15.4693C37.1128 15.9815 40.541 17.4449 40.5655 17.4693C40.7859 17.5669 40.9328 17.7864 40.9328 18.0303C40.7859 19.7376 40.1248 22.9083 37.2108 24.7864Z" fill="#B8C5CE"/>
<path d="M18.8943 21.1523H19.7024C20.1431 21.1523 20.486 20.8108 20.486 20.3718C20.486 19.9327 20.1431 19.5913 19.7024 19.5913H18.8943C18.4535 19.5913 18.1107 19.9327 18.1107 20.3718C18.0862 20.7864 18.4535 21.1523 18.8943 21.1523Z" fill="#B8C5CE"/>
<path d="M28.2973 21.1523H29.1054C29.5462 21.1523 29.889 20.8108 29.889 20.3718C29.889 19.9327 29.5462 19.5913 29.1054 19.5913H28.2973C27.8566 19.5913 27.5137 19.9327 27.5137 20.3718C27.4892 20.7864 27.8566 21.1523 28.2973 21.1523Z" fill="#B8C5CE"/>
</svg>
