<svg width="48" height="49" viewBox="0 0 48 49" fill="none" xmlns="http://www.w3.org/2000/svg">
<circle cx="24" cy="24.1179" r="24" fill="white"/>
<path fill-rule="evenodd" clip-rule="evenodd" d="M10.6671 25.83L10.6671 25.83H10.6961C10.6961 25.83 10.6961 25.83 10.6961 25.83H10.6671ZM32.49 10.6451C29.1606 10.8203 26.0943 12.8524 24.586 15.8186H24.2343H24.2343C24.0916 15.8186 23.9399 15.8186 23.803 15.8371C22.2929 12.8478 19.2298 10.82 15.9041 10.645H15.6968L15.5288 10.7457C11.8237 12.8344 9.6642 17.7901 10.1023 23.077L10.1024 23.0781C10.19 24.0122 10.3361 24.9477 10.5702 25.855L10.58 25.8929C10.505 26.256 10.4799 26.6406 10.4799 27.0217C10.4799 30.4627 12.334 33.22 16.0633 35.4683C17.5343 37.4009 20.4911 39.5908 24.2406 39.5908C27.9901 39.5908 30.9468 37.401 32.4178 35.4685C36.1478 33.2488 38.0014 30.4623 38.0014 27.0217C38.0014 26.5595 37.973 26.095 37.8874 25.6292C38.0892 24.7893 38.2337 23.9477 38.2918 23.0764C38.7588 17.789 36.5698 12.834 32.8653 10.7457L32.6973 10.645L32.4953 10.6448L32.49 10.6451ZM12.8613 22.9151C12.8812 22.8809 12.8976 22.8455 12.9105 22.8093C12.8976 22.8455 12.8812 22.8809 12.8613 22.9151M24.2406 17.0813C25.1008 17.0813 25.9507 17.1501 26.7808 17.2866C25.9507 17.1501 25.1008 17.0812 24.2407 17.0812C21.9224 17.0812 19.7018 17.5943 17.7582 18.5307C17.4661 18.6714 17.111 18.5661 16.9563 18.2812C16.9373 18.2462 16.9222 18.2101 16.9109 18.1734C16.9222 18.2101 16.9373 18.2462 16.9563 18.2812C17.111 18.5661 17.4661 18.6714 17.7581 18.5307C19.7018 17.5943 21.9224 17.0813 24.2406 17.0813ZM17.5585 15.2947C17.2522 13.9341 16.6128 12.7814 15.7535 12.082C14.4263 12.9498 13.34 14.2658 12.5734 15.8604C13.34 14.2659 14.4263 12.9498 15.7535 12.082C16.6128 12.7814 17.2522 13.9341 17.5585 15.2947ZM17.0137 34.4721L17.0853 34.5795C18.4367 36.4185 21.1693 38.2572 24.2406 38.2572C27.3114 38.2572 30.0442 36.39 31.396 34.5504L31.4676 34.443L31.6044 34.3746C35.0133 32.3515 36.6388 29.9675 36.6388 27.0217C36.6388 25.5921 36.2758 24.2308 35.5489 22.9566C35.3711 22.645 35.4492 22.2388 35.7541 22.0355C36.0692 21.8255 36.5015 21.9183 36.6908 22.2512C36.789 22.4239 36.8843 22.6008 36.973 22.785C37.2844 18.2621 35.5519 14.0891 32.6174 12.1757C31.4175 13.1422 30.6922 15.0274 30.6772 17.1028C30.8881 17.1947 31.0985 17.2937 31.3084 17.3957C31.6536 17.5636 31.7867 17.9847 31.6085 18.3225C31.4308 18.6591 31.0157 18.7813 30.6785 18.6173C28.7257 17.6678 26.5204 17.1813 24.2406 17.1813C21.937 17.1813 19.7313 17.691 17.8016 18.6208C17.4639 18.7835 17.0498 18.663 16.8684 18.3289C16.6916 18.0031 16.8028 17.5872 17.1449 17.4213C17.3184 17.3371 17.4921 17.2597 17.6597 17.1889C17.6719 15.0889 16.9213 13.2018 15.7467 12.2063C12.8116 14.1678 11.0757 18.3765 11.4597 22.9204C11.5715 22.6882 11.6906 22.4605 11.8197 22.2348C12.0083 21.9048 12.4347 21.8211 12.7447 22.0278C13.0555 22.235 13.132 22.6503 12.9476 22.9656C12.2039 24.2369 11.8425 25.5951 11.8425 27.0217C11.8425 29.9679 13.4684 32.3808 16.8769 34.4037L17.0137 34.4721ZM30.8967 12.1983C30.8453 12.212 30.794 12.2263 30.743 12.241C30.794 12.2263 30.8453 12.212 30.8967 12.1983ZM25.9265 16.0349C25.9443 16.003 25.9624 15.9713 25.9807 15.9397C25.9624 15.9713 25.9443 16.003 25.9265 16.0349ZM26.0901 15.9507C27.1123 14.2094 28.7728 12.9464 30.6533 12.372C29.8843 13.5239 29.3964 15.0231 29.3198 16.6242C28.2917 16.2841 27.215 16.0673 26.0901 15.9507ZM22.4677 16.0058C21.3632 14.1166 19.532 12.7214 17.4103 12.1692C17.4103 12.1692 17.4103 12.1692 17.4103 12.1692C17.4623 12.1827 17.5142 12.1968 17.5658 12.2113C19.5859 12.7802 21.3291 14.1158 22.4113 15.9108C22.4303 15.9424 22.4491 15.974 22.4677 16.0058ZM17.6581 12.3422C19.5877 12.9179 21.2519 14.2044 22.3012 15.9222C21.1713 16.0437 20.0686 16.3107 19.0163 16.6541C18.9402 15.0259 18.4517 13.4989 17.6581 12.3422Z" fill="#B8C5D0"/>
<path d="M30.3353 29.686C30.0521 29.8355 29.9526 30.1873 30.0312 30.4977C30.0866 30.716 30.112 30.9428 30.112 31.178C30.112 32.6604 28.9203 33.8521 27.4379 33.8521C26.0137 33.8521 24.8511 32.7185 24.793 31.3234L27.5542 29.7538L27.4961 29.3469C27.4961 29.2597 27.2054 27.5158 24.2698 27.5158C21.3342 27.5158 21.0435 29.2597 21.0435 29.3469L20.9854 29.7538L23.6594 31.2652C23.6013 32.6894 22.4387 33.8521 20.9854 33.8521C19.503 33.8521 18.3114 32.6604 18.3114 31.178C18.3114 30.9775 18.3359 30.7769 18.3807 30.5763C18.4492 30.2699 18.3243 29.9408 18.0404 29.8067V29.8067C17.7407 29.6652 17.3782 29.7934 17.2891 30.1127C17.1955 30.4482 17.1487 30.7986 17.1487 31.149C17.1487 33.1545 18.7183 34.8112 20.6947 34.9566C21.276 36.3517 22.6712 37.2818 24.2117 37.2818C25.7521 37.2818 27.1473 36.3517 27.7286 34.9566C29.705 34.8112 31.2746 33.1545 31.2746 31.149C31.2746 30.7412 31.2097 30.3463 31.0886 29.9644C30.9894 29.6517 30.6255 29.5328 30.3353 29.686V29.686ZM24.2407 28.6784C25.3452 28.6784 25.8684 28.9691 26.13 29.2016L24.2407 30.277L22.3515 29.2016C22.6131 28.9691 23.1362 28.6784 24.2407 28.6784ZM24.1826 36.1482C23.2525 36.1482 22.3805 35.6541 21.9155 34.8694C22.8746 34.6078 23.6885 33.9974 24.1826 33.1836C24.7058 33.9974 25.5196 34.6078 26.4497 34.8694C25.9847 35.6541 25.1418 36.1482 24.1826 36.1482Z" fill="#B8C5D0"/>
<path d="M31.885 21.5573H31.0421C28.8912 21.5573 27.1473 23.3013 27.1473 25.4521V26.4694H29.9376C31.7978 26.4694 33.3092 24.958 33.3092 23.0978V22.9816C33.3092 22.1968 32.6697 21.5573 31.885 21.5573ZM32.1465 23.0978C32.1465 24.3186 31.1583 25.3068 29.9376 25.3068H28.3099C28.3971 23.8826 29.5888 22.72 31.0421 22.72H31.885C32.0303 22.72 32.1175 22.8362 32.1175 22.9525V23.0978H32.1465Z" fill="#B8C5D0"/>
<path d="M21.3923 26.4694V25.4521C21.3923 23.3013 19.6484 21.5573 17.4975 21.5573H16.6546C15.8699 21.5573 15.2595 22.1968 15.2595 22.9525V23.0978C15.2304 24.958 16.7418 26.4694 18.602 26.4694H21.3923ZM16.3931 23.0978V22.9816C16.3931 22.8362 16.5093 22.749 16.6256 22.749H17.4685C18.9218 22.749 20.1134 23.8826 20.2006 25.3359H18.573C17.3813 25.3068 16.3931 24.3186 16.3931 23.0978Z" fill="#B8C5D0"/>
<path fill-rule="evenodd" clip-rule="evenodd" d="M9.51678 32.6556C9.40801 32.323 9.5988 32.0035 9.94291 31.9421L17.3191 30.6245L17.713 31.8289L10.3368 33.1465C9.99266 33.208 9.62554 32.9882 9.51678 32.6556V32.6556Z" fill="#B8C5D0"/>
<path fill-rule="evenodd" clip-rule="evenodd" d="M10.77 35.535C10.6058 35.2231 10.7394 34.881 11.0684 34.7708L17.9781 32.4567L18.5728 33.5862L11.6631 35.9002C11.3341 36.0104 10.9342 35.8469 10.77 35.535V35.535Z" fill="#B8C5D0"/>
<path fill-rule="evenodd" clip-rule="evenodd" d="M39.0457 33.1556C39.1545 32.823 38.9637 32.5035 38.6196 32.4421L31.2434 31.1245L30.8495 32.3289L38.2257 33.6465C38.5698 33.708 38.9369 33.4882 39.0457 33.1556V33.1556Z" fill="#B8C5D0"/>
<path fill-rule="evenodd" clip-rule="evenodd" d="M37.7925 36.035C37.9567 35.7231 37.8231 35.381 37.4941 35.2708L30.5844 32.9567L29.9897 34.0862L36.8994 36.4002C37.2284 36.5104 37.6283 36.3469 37.7925 36.035V36.035Z" fill="#B8C5D0"/>
</svg>
