<svg width="48" height="48" viewBox="0 0 48 48" fill="none" xmlns="http://www.w3.org/2000/svg">
<circle cx="24" cy="24" r="24" fill="white"/>
<path d="M31.2065 20.4875C31.3024 21.0667 31.7224 21.4868 32.2051 21.4868C32.3898 21.4868 32.5657 21.4293 32.7139 21.3215C33.7372 20.5745 34.3729 19.2017 34.3729 17.7394C34.3729 16.277 33.7372 14.9042 32.7139 14.1572C32.5657 14.0494 32.3898 13.9919 32.2051 13.9919C31.7224 13.9919 31.3024 14.4125 31.2065 14.9913C31.111 15.5696 30.9969 16.516 30.9969 17.7394C30.9969 18.9627 31.111 19.9091 31.2065 20.4875ZM31.8682 15.1582C31.9 14.965 32.0417 14.8247 32.2051 14.8247C32.2686 14.8247 32.3257 14.8418 32.3699 14.8738C33.1889 15.4722 33.6977 16.5698 33.6977 17.7394C33.6977 18.909 33.1889 20.0066 32.3699 20.6049C32.326 20.637 32.2689 20.654 32.2051 20.654C32.0417 20.654 31.9 20.5137 31.8682 20.3205C31.7788 19.78 31.6721 18.8932 31.6721 17.7394C31.6721 16.5856 31.7788 15.6987 31.8682 15.1582Z" fill="#B8C5D0"/>
<path fill-rule="evenodd" clip-rule="evenodd" d="M30.9599 14.9504C31.0696 14.2882 31.5658 13.7419 32.2051 13.7419C32.4427 13.7419 32.6701 13.8162 32.861 13.9551C33.9593 14.7569 34.6229 16.2113 34.6229 17.7394C34.6229 19.2674 33.9596 20.7216 32.8613 21.5234C32.6704 21.6623 32.4427 21.7368 32.2051 21.7368C31.5659 21.7368 31.0696 21.191 30.9599 20.5283C30.8624 19.9384 30.7469 18.9781 30.7469 17.7394C30.7469 16.5006 30.8624 15.5403 30.9599 14.9504ZM31.4532 15.0321C31.3595 15.5989 31.2469 16.5316 31.2469 17.7394C31.2469 18.9472 31.3595 19.8799 31.4532 20.4466M31.4532 15.0321C31.5353 14.5368 31.879 14.2419 32.2051 14.2419C32.3369 14.2419 32.4612 14.2826 32.5667 14.3593C33.5148 15.0515 34.1229 16.3428 34.1229 17.7394C34.1229 19.1358 33.5148 20.4271 32.5668 21.1193C32.4613 21.1961 32.3369 21.2368 32.2051 21.2368C31.8789 21.2368 31.5352 20.9423 31.4532 20.4466M32.1632 15.0967C32.1433 15.1164 32.1228 15.1506 32.1149 15.1987C32.0274 15.7274 31.9221 16.6009 31.9221 17.7394C31.9221 18.8778 32.0273 19.751 32.1149 20.2797C32.1228 20.3278 32.1433 20.3624 32.1632 20.382C32.1826 20.4013 32.1978 20.404 32.2051 20.404C32.2164 20.404 32.2223 20.4024 32.2243 20.4017C32.9673 19.8577 33.4477 18.8422 33.4477 17.7394C33.4477 16.6367 32.9674 15.6212 32.2245 15.0772C32.2245 15.0772 32.2168 15.0747 32.2051 15.0747C32.1978 15.0747 32.1826 15.0775 32.1632 15.0967ZM31.6216 15.1174C31.6676 14.8379 31.8876 14.5747 32.2051 14.5747C32.3128 14.5747 32.4233 14.6038 32.5166 14.6714C33.4105 15.3245 33.9477 16.5039 33.9477 17.7394C33.9477 18.9748 33.4113 20.1537 32.5174 20.8068C32.4238 20.8751 32.3127 20.904 32.2051 20.904C31.8875 20.904 31.6675 20.6408 31.6215 20.3612C31.5301 19.8089 31.4221 18.9084 31.4221 17.7394C31.4221 16.5703 31.5302 15.6696 31.6216 15.1174Z" fill="#B8C5D0"/>
<path d="M17.0695 14.9913C16.9736 14.4121 16.5536 13.9919 16.0708 13.9919C15.8862 13.9919 15.7103 14.0494 15.5621 14.1572C14.5388 14.9042 13.9031 16.277 13.9031 17.7394C13.9031 19.2017 14.5388 20.5745 15.5621 21.3215C15.7103 21.4293 15.8862 21.4868 16.0708 21.4868C16.5536 21.4868 16.9736 21.0662 17.0695 20.4875C17.165 19.9091 17.2791 18.9627 17.2791 17.7394C17.2791 16.516 17.165 15.5696 17.0695 14.9913ZM16.4078 20.3205C16.376 20.5137 16.2342 20.654 16.0708 20.654C16.0074 20.654 15.9503 20.637 15.9061 20.6049C15.0871 20.0066 14.5783 18.909 14.5783 17.7394C14.5783 16.5698 15.0871 15.4722 15.9061 14.8738C15.95 14.8418 16.007 14.8247 16.0708 14.8247C16.2342 14.8247 16.376 14.965 16.4078 15.1582C16.4972 15.6987 16.6039 16.5856 16.6039 17.7394C16.6039 18.8932 16.4972 19.78 16.4078 20.3205Z" fill="#B8C5D0"/>
<path fill-rule="evenodd" clip-rule="evenodd" d="M17.3161 20.5283C17.2064 21.1905 16.7102 21.7368 16.0708 21.7368C15.8333 21.7368 15.6059 21.6626 15.415 21.5236C14.3167 20.7218 13.6531 19.2674 13.6531 17.7394C13.6531 16.2113 14.3163 14.7571 15.4147 13.9553C15.6056 13.8164 15.8333 13.7419 16.0708 13.7419C16.7101 13.7419 17.2064 14.2877 17.3161 14.9504C17.4136 15.5404 17.5291 16.5006 17.5291 17.7394C17.5291 18.9781 17.4136 19.9384 17.3161 20.5283ZM16.8228 20.4466C16.9165 19.8798 17.0291 18.9472 17.0291 17.7394C17.0291 16.5315 16.9164 15.5989 16.8228 15.0321M16.8228 20.4466C16.7407 20.9419 16.397 21.2368 16.0708 21.2368C15.9391 21.2368 15.8148 21.1961 15.7093 21.1194C14.7612 20.4272 14.1531 19.1359 14.1531 17.7394C14.1531 16.3429 14.7612 15.0516 15.7092 14.3594C15.8147 14.2826 15.9391 14.2419 16.0708 14.2419C16.3971 14.2419 16.7407 14.5364 16.8228 15.0321M16.1128 20.382C16.1327 20.3624 16.1532 20.3281 16.1611 20.28C16.2486 19.7513 16.3539 18.8778 16.3539 17.7394C16.3539 16.6009 16.2486 15.7277 16.1611 15.1991C16.1532 15.1509 16.1327 15.1164 16.1128 15.0967C16.0934 15.0775 16.0782 15.0747 16.0708 15.0747C16.0596 15.0747 16.0537 15.0764 16.0517 15.0771C15.3087 15.621 14.8283 16.6365 14.8283 17.7394C14.8283 18.8421 15.3086 19.8575 16.0515 20.4015C16.0515 20.4015 16.0592 20.404 16.0708 20.404C16.0782 20.404 16.0934 20.4013 16.1128 20.382ZM16.6544 20.3613C16.6084 20.6409 16.3884 20.904 16.0708 20.904C15.9632 20.904 15.8527 20.875 15.7594 20.8073C14.8654 20.1542 14.3283 18.9748 14.3283 17.7394C14.3283 16.5039 14.8647 15.325 15.7586 14.672C15.8522 14.6036 15.9633 14.5747 16.0708 14.5747C16.3884 14.5747 16.6084 14.838 16.6544 15.1175C16.7458 15.6698 16.8539 16.5704 16.8539 17.7394C16.8539 18.9085 16.7458 19.8091 16.6544 20.3613Z" fill="#B8C5D0"/>
<path fill-rule="evenodd" clip-rule="evenodd" d="M34.8578 22.2937C36.1656 21.192 36.9272 19.5777 36.9272 17.8435C36.9272 14.629 34.3123 12.0141 31.0979 12.0141C30.7667 12.0141 30.4248 12.0369 29.9528 12.1307C28.0075 12.5175 26.3753 13.8695 25.6541 15.7616H22.3847C21.6635 13.8695 20.0313 12.5175 18.086 12.1307C17.7247 12.0589 17.2721 12.0141 16.941 12.0141C13.7265 12.0141 11.1116 14.629 11.1116 17.8435C11.1116 19.5777 11.8732 21.192 13.1815 22.2937C12.2679 22.6693 11.1116 23.3009 11.1116 24.0892L11.4385 24.8959L11.9519 25.2858C12.5502 25.7439 13.562 26.1711 15.2754 26.1711C16.8774 26.1711 17.9231 25.804 19.0293 25.4158L19.0341 25.4141C20.3049 24.9673 21.6186 24.5055 24.0194 24.5055C26.4203 24.5055 27.7339 24.9673 29.0047 25.4141L29.0095 25.4158C30.1157 25.804 31.1614 26.1711 32.7634 26.1711C34.4768 26.1711 35.4886 25.7439 36.087 25.2858L36.9272 24.0892C36.9272 23.3009 35.7709 22.6693 34.8578 22.2937ZM33.7877 22.0497C35.2321 21.1233 36.0944 19.551 36.0944 17.8435C36.0944 15.0883 33.8531 12.8469 31.0979 12.8469C30.8181 12.8469 30.5428 12.8706 30.2735 12.9152C29.7401 13.2866 28.1832 14.6752 28.1832 18.2598C28.1832 21.0229 29.5839 22.4236 32.347 22.4236C32.9175 22.4236 33.5021 22.1946 33.7265 22.0964L33.7877 22.0497ZM16.941 12.8469C14.1858 12.8469 11.9444 15.0883 11.9444 17.8435C11.9444 19.551 12.8067 21.1233 14.2507 22.0493L14.3507 22.113C14.6013 22.2192 15.1551 22.4236 15.6918 22.4236C18.4549 22.4236 19.8556 21.0229 19.8556 18.2598C19.8556 14.6773 18.3004 13.2883 17.7646 12.9152C17.4956 12.8706 17.2208 12.8469 16.941 12.8469ZM15.6918 23.2564C14.9948 23.2564 14.3148 23.0037 14.0088 22.8729C12.9029 23.2639 12.031 23.8064 11.959 24.0546C12.0893 24.3411 12.7264 25.3383 15.2754 25.3383C16.7378 25.3383 17.6738 25.0094 18.758 24.628L18.7586 24.6278C20.0326 24.1802 21.477 23.6728 24.0194 23.6728C26.5619 23.6728 28.0063 24.1802 29.2802 24.6278L29.2808 24.628C30.3651 25.0094 31.3011 25.3383 32.7634 25.3383C35.3125 25.3383 35.9495 24.3411 36.0799 24.0546C36.0074 23.8064 35.1359 23.2643 34.03 22.8729C33.724 23.0037 33.044 23.2564 32.347 23.2564C29.1251 23.2564 27.3505 21.4818 27.3505 18.2598C27.3505 15.9785 27.9463 14.482 28.5813 13.5277C27.5449 14.1318 26.7342 15.1028 26.3453 16.3062L26.252 16.5943H21.7872L21.6935 16.3058C21.3046 15.1024 20.4943 14.1314 19.4576 13.5273C20.0925 14.482 20.6884 15.9785 20.6884 18.2598C20.6884 21.4818 18.9138 23.2564 15.6918 23.2564Z" fill="#B8C5D0"/>
<path fill-rule="evenodd" clip-rule="evenodd" d="M10.8616 17.8435C10.8616 14.4909 13.5884 11.7641 16.941 11.7641C17.2893 11.7641 17.7582 11.8106 18.1348 11.8855C20.1079 12.2779 21.7726 13.6226 22.5543 15.5116H25.4845C26.2663 13.6226 27.931 12.2779 29.9041 11.8855C30.3936 11.7882 30.7519 11.7641 31.0979 11.7641C34.4504 11.7641 37.1772 14.4909 37.1772 17.8435C37.1772 19.5172 36.4966 21.0845 35.314 22.2195C35.6813 22.3885 36.0646 22.5957 36.3852 22.8369C36.8016 23.1502 37.1772 23.5702 37.1772 24.0892C37.1772 24.1406 37.1614 24.1907 37.1318 24.2328L36.2916 25.4295C36.2769 25.4504 36.2592 25.4689 36.2389 25.4843C35.5883 25.9824 34.5197 26.4211 32.7634 26.4211C31.1188 26.4211 30.0399 26.0424 28.9318 25.6534L28.9268 25.6517L28.9203 25.6494C27.6603 25.2064 26.3778 24.7555 24.0194 24.7555C21.661 24.7555 20.3785 25.2064 19.1185 25.6494L19.117 25.6499L19.1121 25.6516L19.1071 25.6534C17.9989 26.0424 16.92 26.4211 15.2754 26.4211C13.5194 26.4211 12.4509 25.9826 11.8002 25.4846C11.8001 25.4845 11.8003 25.4847 11.8002 25.4846L11.2873 25.095C11.2515 25.0678 11.2237 25.0314 11.2068 24.9898L10.8799 24.183C10.8678 24.1532 10.8616 24.1213 10.8616 24.0892C10.8616 23.5702 11.2373 23.1502 11.6537 22.8369C11.9743 22.5957 12.3578 22.3885 12.7252 22.2195C11.5422 21.0845 10.8616 19.5172 10.8616 17.8435ZM18.9466 25.1798L18.9512 25.1782C18.9512 25.1782 18.9511 25.1782 18.9512 25.1782M18.9512 25.1782C20.2322 24.7278 21.5772 24.2555 24.0194 24.2555C26.4617 24.2555 27.8064 24.7278 29.0875 25.1782L29.0922 25.1798C30.1947 25.5668 31.2065 25.9211 32.7634 25.9211C34.4037 25.9211 35.3542 25.5202 35.9049 25.11L36.6724 24.017C36.6398 23.7684 36.4401 23.5039 36.0846 23.2365C35.7063 22.9518 35.2116 22.7096 34.7627 22.5249C34.6819 22.4917 34.6243 22.4186 34.6108 22.3323C34.5973 22.246 34.6299 22.1588 34.6967 22.1025C35.9486 21.048 36.6772 19.5034 36.6772 17.8435C36.6772 14.7671 34.1743 12.2641 31.0979 12.2641C30.7814 12.2641 30.456 12.2856 30.0016 12.3759C28.1396 12.7462 26.5779 14.0399 25.8877 15.8506C25.8508 15.9475 25.7578 16.0116 25.6541 16.0116H22.3847C22.281 16.0116 22.188 15.9475 22.1511 15.8506C21.4609 14.0399 19.8992 12.7462 18.0372 12.3759C17.6912 12.3071 17.2549 12.2641 16.941 12.2641C13.8646 12.2641 11.3616 14.7671 11.3616 17.8435C11.3616 19.5034 12.0903 21.0479 13.3425 22.1025C13.4094 22.1588 13.442 22.2459 13.4285 22.3323C13.415 22.4187 13.3574 22.4917 13.2765 22.5249C12.8274 22.7096 12.3326 22.9519 11.9543 23.2365C11.5854 23.514 11.3843 23.7882 11.3634 24.0449L11.6444 24.7384L12.1031 25.0867C12.6491 25.5047 13.6049 25.9211 15.2754 25.9211C16.8323 25.9211 17.8441 25.5668 18.9466 25.1798M16.941 13.0969C14.3238 13.0969 12.1944 15.2263 12.1944 17.8435C12.1944 19.4653 13.0129 20.9584 14.3855 21.8387C14.3855 21.8388 14.3854 21.8387 14.3855 21.8387L14.4671 21.8908C14.7176 21.9953 15.2194 22.1736 15.6918 22.1736C17.034 22.1736 18.0005 21.8337 18.6331 21.2011C19.2657 20.5685 19.6056 19.602 19.6056 18.2598C19.6056 14.8698 18.1846 13.531 17.6672 13.1528C17.4293 13.1162 17.1871 13.0969 16.941 13.0969ZM11.6944 17.8435C11.6944 14.9502 14.0477 12.5969 16.941 12.5969C17.2349 12.5969 17.5234 12.6218 17.8054 12.6685C17.8421 12.6746 17.8769 12.6888 17.9074 12.71C18.5057 13.1266 20.1056 14.5899 20.1056 18.2598C20.1056 19.6808 19.7452 20.7961 18.9867 21.5547C18.2281 22.3132 17.1128 22.6736 15.6918 22.6736C15.103 22.6736 14.511 22.4525 14.2531 22.3432C14.2403 22.3378 14.228 22.3313 14.2163 22.3238L14.1163 22.2601C12.6011 21.2884 11.6944 19.6367 11.6944 17.8435ZM30.3708 13.1528C29.8553 13.5297 28.4332 14.8683 28.4332 18.2598C28.4332 19.602 28.7732 20.5685 29.4057 21.2011C30.0383 21.8337 31.0049 22.1736 32.347 22.1736C32.8431 22.1736 33.3656 21.979 33.5992 21.879L33.6362 21.8509C33.6415 21.8468 33.6471 21.8429 33.6527 21.8393C35.0259 20.9585 35.8444 19.4653 35.8444 17.8435C35.8444 15.2263 33.715 13.0969 31.0979 13.0969C30.8518 13.0969 30.6091 13.1162 30.3708 13.1528ZM30.2327 12.6685C30.515 12.6218 30.8039 12.5969 31.0979 12.5969C33.9911 12.5969 36.3444 14.9502 36.3444 17.8435C36.3444 19.6333 35.4418 21.2818 33.9313 22.2546L33.878 22.2952C33.8622 22.3073 33.845 22.3174 33.8268 22.3254C33.596 22.4264 32.9717 22.6736 32.347 22.6736C30.9261 22.6736 29.8107 22.3132 29.0522 21.5547C28.2936 20.7961 27.9332 19.6808 27.9332 18.2598C27.9332 14.5878 29.5348 13.1249 30.1306 12.71C30.1611 12.6888 30.196 12.6746 30.2327 12.6685ZM19.2756 13.3558C19.3554 13.2712 19.483 13.2527 19.5834 13.3113C20.672 13.9456 21.523 14.9654 21.9314 16.2287C21.9314 16.2288 21.9313 16.2287 21.9314 16.2287L21.9689 16.3443H26.0702L26.1074 16.2293C26.5158 14.9659 27.3672 13.946 28.4554 13.3117C28.5559 13.2531 28.6835 13.2716 28.7632 13.3562C28.843 13.4409 28.8538 13.5693 28.7894 13.6662C28.1833 14.5771 27.6005 16.0248 27.6005 18.2598C27.6005 19.8261 28.0311 21.0034 28.8173 21.7896C29.6035 22.5757 30.7807 23.0064 32.347 23.0064C32.9926 23.0064 33.6348 22.7699 33.9318 22.643C33.9895 22.6184 34.0543 22.6163 34.1134 22.6372C34.6799 22.8377 35.1891 23.0777 35.5695 23.3022C35.7593 23.4141 35.9221 23.5252 36.0455 23.629C36.1071 23.6808 36.1629 23.7342 36.2081 23.7882C36.2508 23.8392 36.2969 23.9059 36.3199 23.9845C36.3366 24.042 36.3322 24.1036 36.3074 24.1581C36.2229 24.3439 35.9974 24.7067 35.4536 25.0204C34.9123 25.3327 34.0699 25.5883 32.7634 25.5883C31.2575 25.5883 30.2877 25.2472 29.2017 24.8651L29.1978 24.8638L29.1967 24.8634C27.9332 24.4195 26.5192 23.9228 24.0194 23.9228C21.5196 23.9228 20.1065 24.4192 18.843 24.8631L18.8415 24.8636L18.8371 24.8651C17.7511 25.2472 16.7814 25.5883 15.2754 25.5883C13.969 25.5883 13.1266 25.3327 12.5852 25.0204C12.0415 24.7067 11.8159 24.3439 11.7314 24.1581C11.7067 24.1037 11.7022 24.0423 11.7189 23.9849C11.7418 23.9061 11.7879 23.8393 11.8306 23.7883C11.8757 23.7342 11.9316 23.6808 11.9931 23.629C12.1165 23.5252 12.2794 23.414 12.4691 23.302C12.8497 23.0774 13.359 22.8375 13.9255 22.6372C13.9846 22.6163 14.0494 22.6184 14.107 22.643C14.404 22.7699 15.0462 23.0064 15.6918 23.0064C17.2581 23.0064 18.4354 22.5757 19.2216 21.7896C20.0077 21.0034 20.4384 19.8261 20.4384 18.2598C20.4384 16.0249 19.8555 14.5771 19.2494 13.6657C19.185 13.5689 19.1959 13.4404 19.2756 13.3558ZM20.2207 14.412C20.6338 15.3587 20.9384 16.6136 20.9384 18.2598C20.9384 19.9155 20.4817 21.2365 19.5751 22.1431C18.6685 23.0498 17.3475 23.5064 15.6918 23.5064C15.0088 23.5064 14.3514 23.2824 14.0022 23.1409C13.4995 23.3246 13.0536 23.5377 12.7232 23.7326C12.5478 23.8362 12.4101 23.9316 12.3151 24.0115C12.2902 24.0325 12.2693 24.0515 12.2521 24.0684C12.3392 24.2015 12.5111 24.4004 12.8351 24.5873C13.2822 24.8453 14.0328 25.0883 15.2754 25.0883C16.6924 25.0883 17.5942 24.7723 18.6751 24.3921C19.9591 23.941 21.4353 23.4228 24.0194 23.4228C26.6035 23.4228 28.0791 23.9408 29.3631 24.3919C30.444 24.7721 31.3465 25.0883 32.7634 25.0883C34.006 25.0883 34.7567 24.8453 35.2037 24.5873C35.5276 24.4005 35.6995 24.2016 35.7867 24.0685C35.7695 24.0516 35.7486 24.0326 35.7236 24.0116C35.6286 23.9317 35.4909 23.8363 35.3154 23.7328C34.9851 23.5379 34.5393 23.3248 34.0366 23.1409C33.6874 23.2824 33.03 23.5064 32.347 23.5064C30.6914 23.5064 29.3704 23.0498 28.4637 22.1431C27.5571 21.2365 27.1005 19.9155 27.1005 18.2598C27.1005 16.614 27.4048 15.3594 27.8178 14.4129C27.2625 14.9435 26.832 15.6131 26.5832 16.3831L26.4899 16.6713C26.4565 16.7744 26.3605 16.8443 26.252 16.8443H21.7872C21.6789 16.8443 21.5829 16.7745 21.5494 16.6715L21.4557 16.383C21.2068 15.6128 20.7763 14.9426 20.2207 14.412Z" fill="#B8C5D0"/>
<path fill-rule="evenodd" clip-rule="evenodd" d="M12.6054 31.9294C10.954 28.7626 10.9541 25.2954 11.1173 24.0169L11.9433 24.1224C11.7943 25.2902 11.7943 28.5729 13.3438 31.5444C14.1144 33.0221 15.2655 34.4185 16.9713 35.4476C18.6771 36.4768 20.9617 37.1531 24.0217 37.1531C27.0855 37.1531 29.3609 36.5099 31.0531 35.5231C32.7441 34.5371 33.8771 33.1938 34.6353 31.7543C36.1602 28.8595 36.1658 25.5833 36.0972 24.1085L36.929 24.0698C36.9992 25.5791 37.0048 29.0431 35.3721 32.1424C34.5516 33.7 33.3165 35.1673 31.4726 36.2425C29.6299 37.317 27.2036 37.9859 24.0217 37.9859C20.836 37.9859 18.3973 37.2805 16.5411 36.1607C14.6849 35.0408 13.4353 33.5209 12.6054 31.9294Z" fill="#B8C5D0"/>
<path fill-rule="evenodd" clip-rule="evenodd" d="M10.9643 23.8192C11.0168 23.7786 11.0832 23.7606 11.1489 23.769L11.975 23.8744C12.112 23.8919 12.2088 24.0171 12.1913 24.1541C12.0465 25.2887 12.0466 28.516 13.5655 31.4288C14.3183 32.8724 15.4399 34.2317 17.1004 35.2336C18.7612 36.2355 20.9995 36.9031 24.0217 36.9031C27.0501 36.9031 29.2801 36.2676 30.9271 35.3072C32.5723 34.3479 33.6745 33.0418 34.4142 31.6378C35.9067 28.8044 35.9156 25.5846 35.8475 24.1201C35.841 23.9822 35.9477 23.8652 36.0856 23.8588L36.9174 23.8201C37.0554 23.8137 37.1724 23.9203 37.1788 24.0582C37.2495 25.5779 37.2583 29.0982 35.5933 32.2589C34.7542 33.8519 33.4883 35.3565 31.5985 36.4585C29.7106 37.5594 27.239 38.2359 24.0217 38.2359C20.7983 38.2359 18.3133 37.5218 16.412 36.3747C14.5106 35.2276 13.2314 33.6706 12.3838 32.045C10.7018 28.8195 10.7019 25.2969 10.8693 23.9853C10.8777 23.9195 10.9119 23.8598 10.9643 23.8192ZM11.3385 24.2972C11.2122 25.7046 11.3041 28.8933 12.8271 31.8138C13.6392 33.3712 14.8592 34.854 16.6703 35.9466C18.4813 37.0392 20.8737 37.7359 24.0217 37.7359C27.1682 37.7359 29.5491 37.0747 31.3466 36.0266C33.1446 34.9781 34.3491 33.548 35.1509 32.0259C36.6678 29.1464 36.7449 25.9348 36.6895 24.3313L36.357 24.3467C36.4114 25.9321 36.3317 29.0704 34.8565 31.8708C34.0796 33.3458 32.9159 34.7263 31.179 35.7391C29.4416 36.7522 27.121 37.4031 24.0217 37.4031C20.924 37.4031 18.5931 36.7181 16.8422 35.6617C15.0912 34.6053 13.9105 33.1719 13.1222 31.66C11.6405 28.8185 11.5482 25.7063 11.6688 24.3394L11.3385 24.2972Z" fill="#B8C5D0"/>
</svg>
