<svg width="48" height="49" viewBox="0 0 48 49" fill="none" xmlns="http://www.w3.org/2000/svg">
<circle cx="24" cy="24.764" r="24" fill="white"/>
<path d="M26.1964 21.531C27.0699 21.531 27.7729 20.8088 27.7729 19.9115C27.7729 19.0142 27.0699 18.2921 26.1964 18.2921C25.323 18.2921 24.62 19.0142 24.62 19.9115C24.62 20.8088 25.323 21.531 26.1964 21.531Z" fill="#B8C5CE"/>
<path d="M33.9722 20.5243C33.9722 20.962 34.3131 21.3121 34.7392 21.3121C35.1652 21.3121 35.5061 20.962 35.5061 20.5243C35.5061 20.0866 35.1652 19.7364 34.7392 19.7364C34.3131 19.7364 33.9722 20.0866 33.9722 20.5243Z" fill="#B8C5CE"/>
<path d="M36.9124 17.8325L36.8485 17.7231L36.8698 17.5918C36.955 17.1759 36.9976 16.8477 36.9976 16.5194C36.9976 15.7097 36.6567 14.8343 35.9963 13.8933C33.866 10.8951 29.0301 10.9389 27.5814 11.0264C23.1503 11.289 19.6991 12.5802 16.4184 15.1626C14.1176 16.979 12.1151 19.7583 10.4534 23.3912L10.3469 23.6538H10.3256C10.0486 24.2884 9.32431 26.0611 9.17519 28.1839C8.89824 31.7511 10.3256 34.5085 13.2868 36.1936C16.2693 37.9006 20.3595 38.9948 23.6829 38.9948C25.9411 38.9948 27.7093 38.5134 28.8597 37.5942C30.01 36.6532 30.5 35.2963 30.2444 33.655L30.2018 33.4143C30.1805 33.3049 30.1592 33.2173 30.1379 33.1298H30.1166L30.0527 32.8672C29.9248 32.3857 29.7757 31.9042 29.6266 31.4666L29.4988 31.0726L30.01 31.1164C30.1166 31.1164 30.2444 31.1383 30.3509 31.1383C31.693 31.1383 33.0138 30.6787 34.0577 29.8471L34.3134 29.6501L34.4625 29.9565C34.6968 30.4599 34.8886 31.007 35.059 31.5541C35.0803 31.576 35.0803 31.5979 35.0803 31.6197C35.1016 31.6416 35.1016 31.6854 35.1229 31.7073C35.1442 31.7729 35.1868 31.8167 35.2294 31.8605C35.2507 31.8824 35.2507 31.8824 35.272 31.9042L35.2933 31.9261C35.3359 31.9699 35.3785 31.9918 35.4638 32.0356C35.4851 32.0356 35.5064 32.0574 35.5064 32.0574C35.5916 32.1012 35.6768 32.1231 35.762 32.1231H35.7833C35.8259 32.1231 35.8898 32.1231 35.9537 32.1012H35.975C35.9963 32.1012 35.9963 32.0793 36.0176 32.0793C36.0389 32.0793 36.0602 32.0574 36.0816 32.0574C36.1029 32.0574 36.1242 32.0356 36.1455 32.0137C36.1668 31.9918 36.1881 31.9918 36.2094 31.9699C36.2307 31.948 36.252 31.9261 36.2733 31.9261C36.2946 31.9042 36.2946 31.9042 36.3159 31.8824L36.3372 31.8605L36.3585 31.8386C37.9776 30.0659 38.8936 27.3741 38.8936 24.4854C38.8723 21.9468 38.1693 19.5832 36.9124 17.8325ZM27.901 36.3906C27.0062 37.1128 25.4724 37.4629 23.6616 37.4629C20.7004 37.4629 16.9723 36.5438 13.9898 34.8587C9.00476 32.0356 10.8369 26.3456 11.5186 24.6823C11.5825 24.5292 11.6677 24.3541 11.7316 24.2009L11.7529 24.1352C13.3081 20.6994 15.1828 18.0951 17.3131 16.3881C20.4022 13.9589 23.4912 12.799 27.6667 12.5583C30.1166 12.4051 33.4399 12.9085 34.782 14.8124C35.0803 15.2501 35.2933 15.644 35.3998 16.0161L35.5064 16.3443L35.1868 16.3662C35.1655 16.3662 35.1442 16.3662 35.1442 16.3662C35.1442 16.3662 35.1229 16.3662 35.1016 16.3662C35.0803 16.3662 35.0803 16.3662 35.059 16.3881H35.0377C33.9725 16.6507 32.9712 17.2854 32.0978 18.2264L31.8848 18.4671L31.693 18.2045C30.4574 16.5194 28.4975 15.5127 26.4737 15.5127C22.8521 15.5127 19.8909 18.5328 19.8909 22.275C19.8909 23.8945 20.4661 25.4702 21.5099 26.7176C21.6591 26.8927 21.8508 26.9802 22.0638 26.9802C22.2343 26.9802 22.426 26.9146 22.5538 26.7833C22.7029 26.652 22.7881 26.455 22.8094 26.258C22.8308 26.0611 22.7668 25.8641 22.639 25.7109C21.8295 24.7699 21.3821 23.5443 21.3821 22.275C21.3821 19.3863 23.6616 17.0446 26.4737 17.0446C28.3058 17.0446 29.9887 18.0732 30.9048 19.7146L30.9687 19.8459L30.9048 19.9772C30.1379 21.4434 29.6905 23.1942 29.6053 25.0106V25.2295L29.3922 25.2732C28.2845 25.4921 27.2832 26.083 26.3671 27.0459L25.9837 27.4617L25.8559 27.4398C25.3872 27.3741 25.0037 27.2866 24.6416 27.1553C24.2581 27.0021 23.832 27.1991 23.6829 27.593C23.619 27.79 23.619 27.9869 23.7042 28.1839C23.7894 28.3808 23.9385 28.5121 24.109 28.5778C24.5776 28.7748 25.0889 28.9061 25.6215 28.9717L25.728 28.9936L25.7919 29.0593C26.3245 29.6501 26.921 30.1316 27.5814 30.4817L27.6667 30.5255L27.7093 30.6131C28.0501 31.4666 28.3484 32.3419 28.5827 33.2392L28.6466 33.458C28.9662 34.7711 28.7318 35.734 27.901 36.3906ZM33.2269 28.5778C32.396 29.2562 31.3735 29.6501 30.3296 29.6501C29.2644 29.6501 28.2205 29.2781 27.411 28.5778L27.1767 28.3808L27.3897 28.162C27.3897 28.162 27.3897 28.162 27.411 28.1401L27.5388 28.0088C28.1353 27.4179 29.094 26.7176 30.3296 26.7176C30.5 26.7176 30.6918 26.7395 30.9048 26.7614C31.7356 26.9146 32.5452 27.396 33.2695 28.162L33.4612 28.3808L33.2269 28.5778ZM36.252 29.3219L35.9963 29.7814L35.762 29.3C35.5277 28.8185 35.272 28.3589 35.0164 27.9869C35.0164 27.965 34.9951 27.965 34.9951 27.965L34.9738 27.9431C33.9725 26.5206 32.673 25.5796 31.267 25.2951L31.0326 25.2513L31.0752 25.0106C31.1604 23.2598 31.6291 21.5747 32.4173 20.2836L32.5665 20.0647C33.2056 19.0799 34.0151 18.3796 34.8886 18.0294L35.059 17.9638L35.1868 18.0951C36.5715 19.5614 37.4024 21.9468 37.4024 24.4854C37.3811 26.2143 36.9763 27.9431 36.252 29.3219Z" fill="#B8C5CE"/>
</svg>
