<svg width="48" height="48" viewBox="0 0 48 48" fill="none" xmlns="http://www.w3.org/2000/svg">
<circle cx="24" cy="24" r="24" fill="white"/>
<path d="M12.0484 28.2182C9.59905 28.2182 7.12719 26.261 7.12719 21.8909C7.12719 18.2618 8.57965 16.9697 9.93932 16.9697C10.9643 16.9697 12.0976 17.2818 12.7262 19.5976C12.8288 19.9716 12.6066 20.3583 12.2326 20.4595C11.8642 20.5622 11.4719 20.34 11.3707 19.966C10.9376 18.3757 10.43 18.3757 9.93932 18.3757C9.11115 18.3757 8.53325 19.8212 8.53325 21.8909C8.53325 25.2908 10.2993 26.8121 12.0484 26.8121C12.4365 26.8121 12.7515 27.1271 12.7515 27.5152C12.7515 27.9033 12.4365 28.2182 12.0484 28.2182Z" fill="#B8C5D0"/>
<path d="M21.8908 32.4364C21.7108 32.4364 21.5309 32.3675 21.3931 32.2311L19.987 30.825C19.7128 30.5509 19.7128 30.1051 19.987 29.8309C20.2612 29.5568 20.7069 29.5568 20.9811 29.8309L22.3872 31.237C22.6613 31.5112 22.6613 31.9569 22.3872 32.2311C22.2508 32.3675 22.0708 32.4364 21.8908 32.4364Z" fill="#B8C5D0"/>
<path d="M19.0787 25.4061C17.9159 25.4061 16.9696 24.4598 16.9696 23.297C16.9696 22.1342 17.9159 21.1879 19.0787 21.1879C20.2415 21.1879 21.1878 22.1342 21.1878 23.297C21.1878 24.4598 20.2415 25.4061 19.0787 25.4061ZM19.0787 22.5939C18.6906 22.5939 18.3757 22.9089 18.3757 23.297C18.3757 23.685 18.6906 24 19.0787 24C19.4668 24 19.7817 23.685 19.7817 23.297C19.7817 22.9089 19.4668 22.5939 19.0787 22.5939Z" fill="#B8C5D0"/>
<path d="M33.1394 33.8425C32.9088 33.8425 32.6824 33.7286 32.5488 33.5205C32.3407 33.1985 32.4307 32.7682 32.7485 32.5545C32.8132 32.5081 35.2485 30.6591 35.2485 23.297C35.2485 15.7084 30.1234 8.53324 24.703 8.53324H23.2969C17.8765 8.53324 12.7514 15.7084 12.7514 23.297C12.7514 30.7196 15.2275 32.539 15.2528 32.5559C15.5663 32.7753 15.6521 33.2097 15.4384 33.5275C15.2233 33.8453 14.8014 33.9381 14.4795 33.73C14.3515 33.647 11.3453 31.611 11.3453 23.297C11.3453 14.9857 17.1538 7.12717 23.2969 7.12717H24.703C30.8461 7.12717 36.6546 14.9857 36.6546 23.297C36.6546 31.611 33.6484 33.647 33.5204 33.73C33.4037 33.8059 33.2702 33.8425 33.1394 33.8425Z" fill="#B8C5D0"/>
<path d="M24.703 40.8729H23.2969C16.5914 40.8729 14.1575 36.6687 14.1575 33.8425C14.1575 30.2149 15.8841 27.6614 18.8931 26.8375C19.2699 26.7391 19.6552 26.9556 19.7578 27.3296C19.8605 27.705 19.6397 28.0917 19.2657 28.1943C16.0444 29.0745 15.5635 32.1116 15.5635 33.8425C15.5635 36.1035 17.6234 39.4668 23.2969 39.4668H24.703C30.3765 39.4668 32.4364 36.1035 32.4364 33.8425C32.4364 32.1116 31.9555 29.0745 28.7356 28.1929C28.3616 28.0903 28.1408 27.7036 28.2435 27.3282C28.3461 26.9542 28.7314 26.7362 29.1082 26.8361C32.1158 27.6614 33.8424 30.2149 33.8424 33.8425C33.8424 36.6687 31.4085 40.8729 24.703 40.8729Z" fill="#B8C5D0"/>
<path d="M35.9516 28.2182C35.5635 28.2182 35.2486 27.9033 35.2486 27.5152C35.2486 27.1271 35.5635 26.8121 35.9516 26.8121C37.7008 26.8121 39.4668 25.2908 39.4668 21.8909C39.4668 19.8212 38.8889 18.3757 38.0607 18.3757C37.57 18.3757 37.0624 18.3757 36.6293 19.966C36.5281 20.3414 36.1428 20.5636 35.7674 20.4609C35.392 20.3597 35.1712 19.973 35.2725 19.599C35.9024 17.2818 37.0357 16.9697 38.0607 16.9697C39.4204 16.9697 40.8729 18.2618 40.8729 21.8909C40.8729 26.261 38.401 28.2182 35.9516 28.2182Z" fill="#B8C5D0"/>
<path d="M31.0303 28.9212C30.8503 28.9212 30.6703 28.8524 30.5325 28.716C30.2584 28.4418 30.2584 27.9961 30.5325 27.7219C31.8852 26.3692 32.4364 25.5903 32.4364 23.297C32.4364 21.6336 31.282 19.7818 29.6242 19.7818C28.1774 19.7818 27.5235 20.1544 26.8908 20.5144C26.3087 20.8448 25.7055 21.1879 24.703 21.1879H23.2969C22.2944 21.1879 21.6912 20.8448 21.1091 20.5144C20.4763 20.1544 19.8225 19.7818 18.3757 19.7818C16.7179 19.7818 15.5635 21.6336 15.5635 23.297C15.5635 25.5903 16.1147 26.3692 17.4673 27.7205C17.7415 27.9946 17.7415 28.4404 17.4673 28.7146C17.1932 28.9887 16.7474 28.9887 16.4733 28.7146C14.8717 27.1144 14.1575 25.953 14.1575 23.297C14.1575 20.9207 15.8532 18.3757 18.3757 18.3757C20.1951 18.3757 21.088 18.8833 21.8037 19.2911C22.3042 19.5765 22.6656 19.7818 23.2969 19.7818H24.703C25.3343 19.7818 25.6957 19.5765 26.1962 19.2911C26.9119 18.8833 27.8048 18.3757 29.6242 18.3757C32.1467 18.3757 33.8424 20.9207 33.8424 23.297C33.8424 25.953 33.1281 27.1145 31.528 28.716C31.3902 28.8524 31.2103 28.9212 31.0303 28.9212Z" fill="#B8C5D0"/>
<path d="M24.703 38.0606H23.2969C21.7404 38.0606 16.4887 37.8385 14.3023 34.9715C14.0675 34.6636 14.1265 34.2221 14.4345 33.9859C14.7424 33.7496 15.1839 33.8101 15.4201 34.118C16.8459 35.9881 20.4243 36.6546 23.2969 36.6546H24.703C27.5756 36.6546 31.154 35.9881 32.5812 34.1194C32.816 33.8115 33.2575 33.7496 33.5668 33.9873C33.8762 34.2221 33.9352 34.6636 33.699 34.9729C31.5112 37.8385 26.2595 38.0606 24.703 38.0606Z" fill="#B8C5D0"/>
<path d="M26.1091 32.4364C25.9292 32.4364 25.7492 32.3675 25.6114 32.2311C25.3372 31.9569 25.3372 31.5112 25.6114 31.237L27.0175 29.8309C27.2916 29.5568 27.7374 29.5568 28.0115 29.8309C28.2857 30.1051 28.2857 30.5509 28.0115 30.825L26.6055 32.2311C26.4691 32.3675 26.2891 32.4364 26.1091 32.4364Z" fill="#B8C5D0"/>
<path d="M28.9211 25.4061C27.7583 25.4061 26.812 24.4598 26.812 23.297C26.812 22.1342 27.7583 21.1879 28.9211 21.1879C30.0839 21.1879 31.0302 22.1342 31.0302 23.297C31.0302 24.4598 30.0839 25.4061 28.9211 25.4061ZM28.9211 22.5939C28.533 22.5939 28.2181 22.9089 28.2181 23.297C28.2181 23.685 28.533 24 28.9211 24C29.3092 24 29.6241 23.685 29.6241 23.297C29.6241 22.9089 29.3092 22.5939 28.9211 22.5939Z" fill="#B8C5D0"/>
<path d="M24.7031 24H23.297C22.9089 24 22.594 23.685 22.594 23.297C22.594 22.9089 22.9089 22.5939 23.297 22.5939H24.7031C25.0912 22.5939 25.4061 22.9089 25.4061 23.297C25.4061 23.685 25.0912 24 24.7031 24Z" fill="#B8C5D0"/>
<path d="M24.7031 26.8121H23.297C22.9089 26.8121 22.594 26.4972 22.594 26.1091C22.594 25.721 22.9089 25.4061 23.297 25.4061H24.7031C25.0912 25.4061 25.4061 25.721 25.4061 26.1091C25.4061 26.4972 25.0912 26.8121 24.7031 26.8121Z" fill="#B8C5D0"/>
</svg>
