<svg width="48" height="48" viewBox="0 0 48 48" fill="none" xmlns="http://www.w3.org/2000/svg">
<circle cx="24" cy="24" r="24" fill="white"/>
<path d="M29.1562 22.0128C27.9934 22.0128 27.0471 21.0665 27.0471 19.9037C27.0471 18.7409 27.9934 17.7946 29.1562 17.7946C30.319 17.7946 31.2653 18.7409 31.2653 19.9037C31.2653 21.0665 30.319 22.0128 29.1562 22.0128ZM29.1562 19.2007C28.7681 19.2007 28.4531 19.5156 28.4531 19.9037C28.4531 20.2918 28.7681 20.6068 29.1562 20.6068C29.5442 20.6068 29.8592 20.2918 29.8592 19.9037C29.8592 19.5156 29.5442 19.2007 29.1562 19.2007Z" fill="#B8C5D0"/>
<path d="M18.8437 22.0128C17.6809 22.0128 16.7346 21.0665 16.7346 19.9037C16.7346 18.7409 17.6809 17.7946 18.8437 17.7946C20.0065 17.7946 20.9528 18.7409 20.9528 19.9037C20.9528 21.0665 20.0065 22.0128 18.8437 22.0128ZM18.8437 19.2007C18.4556 19.2007 18.1406 19.5156 18.1406 19.9037C18.1406 20.2918 18.4556 20.6068 18.8437 20.6068C19.2317 20.6068 19.5467 20.2918 19.5467 19.9037C19.5467 19.5156 19.2317 19.2007 18.8437 19.2007Z" fill="#B8C5D0"/>
<path fill-rule="evenodd" clip-rule="evenodd" d="M18.9219 11.7344C17.785 11.7344 16.7663 10.6881 15.8301 10.1531C15.0276 9.68503 14.1917 9.18349 13.1552 8.98287C11.8512 8.74881 10.4468 9.3841 9.51061 10.5878C8.70814 11.6578 8.47408 12.8949 8.94219 13.898C9.30999 14.7005 9.81154 15.3024 10.2462 15.8373C10.9818 16.7401 11.9375 17.9062 11.8438 18.8906C11.8438 18.8906 13.2656 21.5625 13.2656 17.8125C13.2656 14.0625 15.5452 13.3715 19.125 13.1959C19.8836 13.1587 18.9219 11.7344 18.9219 11.7344ZM10.1793 13.2962C10.4803 13.9649 10.9149 14.4665 11.3162 14.968C11.684 15.4027 12.1253 16.1725 12.3594 16.6406C12.6269 16.206 12.8208 15.4695 13.1552 15.0683C13.6233 14.3996 13.8239 13.7643 13.6902 13.2962C13.5899 12.8615 13.2555 12.6943 13.1552 12.6609C12.9211 12.5271 12.6536 12.5271 12.453 12.6274C12.2754 12.7459 12.0491 12.8804 11.8436 12.8225L11.5525 12.7404C11.1989 12.6407 10.9841 12.2624 11.2088 11.9717C11.3855 11.7433 11.6189 11.5566 11.8846 11.4237C12.4196 11.1562 13.0883 11.1562 13.6902 11.4237C14.292 11.6912 14.7601 12.2596 14.9608 12.9284C14.9942 13.0287 15.0276 13.0956 15.0276 13.1959C15.5292 12.7946 16.0976 12.4268 16.6995 12.0925C16.131 11.8584 15.596 11.5575 15.1279 11.2565C14.4258 10.7884 13.7236 10.3872 12.9211 10.2534C12.1187 10.1197 11.1824 10.5544 10.5806 11.3569C10.079 12.0256 9.94529 12.7612 10.1793 13.2962Z" fill="#B8C5D0"/>
<path fill-rule="evenodd" clip-rule="evenodd" d="M29.3226 11.7344C30.4594 11.7344 31.4781 10.6881 32.4143 10.1531C33.2168 9.68503 34.0527 9.18349 35.0893 8.98287C36.3933 8.74881 37.7976 9.3841 38.7338 10.5878C39.5363 11.6578 39.7704 12.8949 39.3023 13.898C38.9345 14.7005 38.4329 15.3024 37.9982 15.8373C37.2626 16.7401 36.3069 17.9062 36.4007 18.8906C36.4007 18.8906 34.9788 21.5625 34.9788 17.8125C34.9788 14.0625 32.6993 13.3715 29.1194 13.1959C28.3608 13.1587 29.3226 11.7344 29.3226 11.7344ZM38.0651 13.2962C37.7642 13.9649 37.3295 14.4665 36.9283 14.968C36.5605 15.4027 36.1191 16.1725 35.8851 16.6406C35.6176 16.206 35.4236 15.4695 35.0893 15.0683C34.6211 14.3996 34.4205 13.7643 34.5543 13.2962C34.6546 12.8615 34.989 12.6943 35.0893 12.6609C35.3233 12.5271 35.5908 12.5271 35.7914 12.6274C35.9691 12.7459 36.1954 12.8804 36.4009 12.8225L36.6919 12.7404C37.0455 12.6407 37.2604 12.2624 37.0356 11.9717C36.859 11.7433 36.6256 11.5566 36.3598 11.4237C35.8249 11.1562 35.1561 11.1562 34.5543 11.4237C33.9524 11.6912 33.4843 12.2596 33.2837 12.9284C33.2503 13.0287 33.2168 13.0956 33.2168 13.1959C32.7153 12.7946 32.1468 12.4268 31.545 12.0925C32.1134 11.8584 32.6484 11.5575 33.1165 11.2565C33.8187 10.7884 34.5208 10.3872 35.3233 10.2534C36.1258 10.1197 37.062 10.5544 37.6639 11.3569C38.1654 12.0256 38.2992 12.7612 38.0651 13.2962Z" fill="#B8C5D0"/>
<path fill-rule="evenodd" clip-rule="evenodd" d="M30.9168 12.0033C28.5567 11.5501 26.0974 11.2864 24.134 11.2864H24.0739C22.0832 11.2864 19.5828 11.5573 17.1926 12.0221L15.5973 12.3885C14.1703 12.8614 13.0774 14.0017 12.6637 15.4691C12.5503 15.8716 12.3359 16.7734 12.2641 17.0823L10.2858 25.1932C9.71009 27.5526 9.89536 29.9869 10.8219 32.2324C11.7557 34.4965 13.3571 36.3634 15.4525 37.6314L18.7351 39.6178C20.1533 40.4764 21.7793 40.93 23.4375 40.93H24.0423C24.0633 40.93 24.0839 40.9291 24.1042 40.9275C24.1248 40.9291 24.1453 40.93 24.1661 40.93H24.7709C26.4291 40.93 28.0549 40.4764 29.4733 39.6178L32.756 37.6314C34.8513 36.3639 36.4527 34.4967 37.3867 32.2324C38.3131 29.9866 38.4983 27.5524 37.9226 25.1932L35.9446 17.0841L35.5483 15.482C35.128 13.9746 33.9925 12.8088 32.5133 12.3555L30.9168 12.0033ZM31.9374 36.2785C33.7415 35.1868 35.1204 33.5792 35.9247 31.6294C36.7222 29.6956 36.8818 27.5996 36.3861 25.568L34.054 16.0046C33.784 14.898 32.9311 14.0561 31.8276 13.8076C29.216 13.2193 26.3403 12.8682 24.1347 12.8682H24.0746C21.8693 12.8682 18.9936 13.2193 16.382 13.8076C15.2787 14.0559 14.4256 14.898 14.1556 16.0046L11.8228 25.568C11.3271 27.5998 11.4866 29.6958 12.2842 31.6294C13.0885 33.5792 14.4672 35.1868 16.2715 36.2785L19.5543 38.2649C20.7256 38.9739 22.0683 39.3485 23.4377 39.3485H24.0425C24.0633 39.3485 24.0839 39.3494 24.1044 39.351C24.1248 39.3494 24.1453 39.3485 24.1663 39.3485H24.7712C26.1403 39.3485 27.4833 38.9739 28.6545 38.2649L31.9374 36.2785Z" fill="#B8C5D0"/>
<path d="M24.207 23.0825C24.1803 23.0825 24.1539 23.0839 24.1279 23.0866C24.1019 23.0839 24.0755 23.0825 24.0486 23.0825C22.1047 23.0825 21.0412 25.1519 19.7583 28.9733C19.0118 31.2255 18.1912 34.4572 19.675 36.5123C20.5299 37.696 22.0012 38.2963 24.0486 38.2963H24.2068C26.2542 38.2963 27.7255 37.696 28.5802 36.5123C30.0639 34.4572 29.2436 31.2255 28.4962 28.9702C27.2142 25.1521 26.1509 23.0825 24.207 23.0825ZM24.0486 32.7406C23.5315 32.7406 23.071 32.4331 22.761 32.096H25.3362C25.0265 32.4329 24.566 32.7406 24.0486 32.7406ZM27.2982 35.5865C26.808 36.2654 25.9031 36.6375 24.6135 36.7017V33.8041C25.4465 33.6104 26.1094 33.0187 26.4867 32.4577C26.6837 32.1647 26.7029 31.7887 26.5366 31.4762C26.3692 31.1615 26.0439 30.9661 25.6878 30.9661H22.4095C22.0536 30.9661 21.7283 31.1613 21.5608 31.476C21.3946 31.7883 21.4135 32.1644 21.6106 32.4575C21.9881 33.0185 22.651 33.6104 23.484 33.8038V36.6949C22.2771 36.609 21.4278 36.2376 20.9574 35.5862C20.1621 34.4848 20.2608 32.4844 21.2588 29.4736C22.4056 26.0574 23.214 24.6638 24.0488 24.6638C24.0755 24.6638 24.1019 24.6625 24.1281 24.6598C24.1539 24.6625 24.1803 24.6638 24.2072 24.6638C25.0418 24.6638 25.8502 26.0574 26.9964 29.4704C27.9948 32.4848 28.0938 34.485 27.2982 35.5865Z" fill="#B8C5D0"/>
</svg>
