<svg width="48" height="49" viewBox="0 0 48 49" fill="none" xmlns="http://www.w3.org/2000/svg">
<circle cx="24" cy="24.2357" r="24" fill="white"/>
<path d="M35.112 27.3934C36.3698 22.358 36.0909 18.2119 34.2753 15.0627C32.1753 11.4151 28.6534 10.1123 26.187 10.1123C20.5542 10.1123 18.148 16.003 17.8144 16.9035C17.6667 17.1188 17.1909 17.7928 16.4198 18.6424C15.1675 20.0301 13.669 21.2422 11.9628 22.2391C8.27139 24.3971 8.07998 25.7282 8.11279 26.17C8.23858 28.0334 9.3378 27.9938 9.6167 27.9938C11.0714 27.9938 14.8995 26.9289 20.68 24.9182C21.3855 24.6746 22.1183 24.6293 22.78 24.7879C23.9612 25.0768 24.3605 25.7282 24.1198 26.9743C23.7425 28.0561 21.3089 35.3627 23.5839 38.5629C23.7644 38.8178 24.0706 38.9368 24.3714 38.8688L27.2151 38.2287L29.1019 38.8461C29.2659 38.9028 31.3933 38.1381 31.3933 38.1381L34.9644 38.8688C35.0136 38.8801 35.5058 38.9934 35.7956 38.461C35.9651 38.1551 35.8995 37.7643 35.6534 37.5151C32.5581 34.3545 35.1065 27.4217 35.112 27.3934ZM20.1878 23.4002C12.6136 26.0397 10.3167 26.3795 9.66045 26.3909C9.64404 26.3569 9.41983 25.6885 12.7175 23.6325C14.5331 22.4996 16.1901 21.2422 17.5464 19.7299C17.787 19.4637 17.9948 19.2201 18.1808 18.9936C18.7222 19.8602 19.5862 20.7155 20.8167 20.9647C20.7292 21.2082 20.669 21.4801 20.6472 21.7803C20.6144 22.2617 20.7019 22.7432 20.8987 23.2076C20.6581 23.2586 20.423 23.3209 20.1878 23.4002ZM33.362 36.909L31.4698 36.5239C31.3276 36.4955 29.3042 37.2375 29.3042 37.2375C29.3042 37.2375 27.1386 36.6088 27.0839 36.6201L24.5792 37.1809C23.3433 33.6692 25.6128 27.3934 25.6183 27.3594C26.0558 25.2297 25.1534 23.7231 23.13 23.236C22.9769 23.1963 22.8128 23.1737 22.6542 23.151C22.3206 22.7205 22.162 22.3071 22.1839 21.9106C22.2222 21.2535 22.7526 20.7891 22.7526 20.7891C23.0315 20.5569 23.119 20.1604 22.9659 19.8262C22.8128 19.492 22.4628 19.3108 22.1128 19.3844C20.3409 19.7582 19.4933 18.3139 19.1925 17.6116C19.2034 17.5889 19.2144 17.5719 19.2198 17.5492C19.2417 17.4926 21.287 11.7153 26.1761 11.7153C28.1886 11.7153 31.169 12.8028 32.9464 15.884C34.5378 18.6424 34.762 22.3694 33.6245 26.9516C33.4058 27.5633 31.5136 33.0008 33.362 36.909Z" fill="#B8C5D0"/>
<path d="M24.2019 13.8393C22.8675 13.8393 21.7792 14.9608 21.7792 16.3428C21.7792 17.7248 22.8675 18.8463 24.2019 18.8463C25.5362 18.8463 26.6245 17.7248 26.6245 16.3428C26.6245 14.9608 25.5362 13.8393 24.2019 13.8393ZM24.2019 17.2491C23.7151 17.2491 23.3214 16.8412 23.3214 16.3428C23.3214 15.8444 23.7151 15.4366 24.2019 15.4366C24.6886 15.4366 25.0823 15.8444 25.0823 16.3428C25.0823 16.8412 24.6886 17.2491 24.2019 17.2491Z" fill="#B8C5D0"/>
</svg>
