<svg width="46" height="46" viewBox="0 0 46 46" fill="none" xmlns="http://www.w3.org/2000/svg">
<path d="M45.0904 23C45.0904 35.4264 35.0168 45.5 22.5904 45.5C10.164 45.5 0.090416 35.4264 0.090416 23C0.090416 10.5736 10.164 0.5 22.5904 0.5C35.0168 0.5 45.0904 10.5736 45.0904 23Z" fill="#B8C5D0"/>
<path d="M42.5904 23C42.5904 34.0457 33.6361 43 22.5904 43C11.5447 43 2.59042 34.0457 2.59042 23C2.59042 11.9543 11.5447 3 22.5904 3C33.6361 3 42.5904 11.9543 42.5904 23Z" fill="#DEE7EE"/>
<path d="M35.1973 23C35.1973 29.9626 29.553 35.6069 22.5904 35.6069C15.6278 35.6069 9.98348 29.9626 9.98348 23C9.98348 16.0374 15.6278 10.3931 22.5904 10.3931C29.553 10.3931 35.1973 16.0374 35.1973 23Z" fill="#B8C5D0"/>
</svg>
