<svg width="49" height="46" viewBox="0 0 49 46" fill="none" xmlns="http://www.w3.org/2000/svg">
<circle cx="24.5904" cy="23.2153" r="22.5" fill="#B8C5D0"/>
<path d="M23.0117 26.9998C23.0273 26.0701 23.1328 25.3357 23.3281 24.7966C23.5234 24.2576 23.9219 23.6599 24.5234 23.0037L26.0586 21.4216C26.7148 20.6794 27.043 19.8826 27.043 19.031C27.043 18.2107 26.8281 17.5701 26.3984 17.1091C25.9688 16.6404 25.3438 16.406 24.5234 16.406C23.7266 16.406 23.0859 16.6169 22.6016 17.0388C22.1172 17.4607 21.875 18.0271 21.875 18.738H19.707C19.7227 17.4724 20.1719 16.4529 21.0547 15.6794C21.9453 14.8982 23.1016 14.5076 24.5234 14.5076C26 14.5076 27.1484 14.906 27.9688 15.7029C28.7969 16.4919 29.2109 17.5779 29.2109 18.9607C29.2109 20.3279 28.5781 21.6755 27.3125 23.0037L26.0352 24.2693C25.4648 24.9021 25.1797 25.8123 25.1797 26.9998H23.0117ZM22.918 30.7146C22.918 30.363 23.0234 30.0701 23.2344 29.8357C23.4531 29.5935 23.7734 29.4724 24.1953 29.4724C24.6172 29.4724 24.9375 29.5935 25.1563 29.8357C25.375 30.0701 25.4844 30.363 25.4844 30.7146C25.4844 31.0662 25.375 31.3591 25.1563 31.5935C24.9375 31.8201 24.6172 31.9333 24.1953 31.9333C23.7734 31.9333 23.4531 31.8201 23.2344 31.5935C23.0234 31.3591 22.918 31.0662 22.918 30.7146Z" fill="#DEE7EE"/>
</svg>
