<svg width="46" height="46" viewBox="0 0 46 46" fill="none" xmlns="http://www.w3.org/2000/svg">
<circle cx="22.5904" cy="23.4653" r="22.5" fill="#B8C5D0"/>
<path d="M21.2513 22.1496L21.9584 22.8567L21.2513 22.1496ZM29.1973 15.2036C29.1973 14.6513 28.7496 14.2036 28.1973 14.2036L19.1973 14.2036C18.6451 14.2036 18.1973 14.6513 18.1973 15.2036C18.1973 15.7558 18.6451 16.2036 19.1973 16.2036L27.1973 16.2036L27.1973 24.2036C27.1973 24.7558 27.6451 25.2036 28.1973 25.2036C28.7496 25.2036 29.1973 24.7558 29.1973 24.2036L29.1973 15.2036ZM19.3223 33.0161V29.2207H17.3223V33.0161H19.3223ZM21.9584 22.8567L28.9045 15.9107L27.4902 14.4964L20.5442 21.4425L21.9584 22.8567ZM19.3223 29.2207C19.3223 26.8337 20.2706 24.5446 21.9584 22.8567L20.5442 21.4425C18.4813 23.5054 17.3223 26.3033 17.3223 29.2207H19.3223Z" fill="#DEE7EE"/>
</svg>
